<svg xmlns="http://www.w3.org/2000/svg" width="52" height="52" viewBox="0 0 52 52" fill="none">
  <path d="M23.8334 22.75C23.8334 16.1686 29.1686 10.8334 35.75 10.8334C42.3315 10.8334 47.6667 16.1686 47.6667 22.75C47.6667 29.3315 42.3315 34.6667 35.75 34.6667C29.1686 34.6667 23.8334 29.3315 23.8334 22.75Z" stroke="black" stroke-width="1.5"/>
  <path d="M35.75 43.3334V34.6667M35.75 43.3334H42.25M35.75 43.3334H29.25" stroke="black" stroke-width="1.5" stroke-linecap="round" stroke-linejoin="round"/>
  <path d="M4.33337 23.8334V22.2084C3.43592 22.2084 2.70837 22.9359 2.70837 23.8334H4.33337ZM17.3334 23.8334H18.9584C18.9584 22.9359 18.2308 22.2084 17.3334 22.2084V23.8334ZM4.33337 25.4584H17.3334V22.2084H4.33337V25.4584ZM15.7084 23.8334V36.8334H18.9584V23.8334H15.7084ZM5.95837 36.8334V23.8334H2.70837V36.8334H5.95837ZM10.8334 41.7084C8.14099 41.7084 5.95837 39.5257 5.95837 36.8334H2.70837C2.70837 41.3208 6.34606 44.9584 10.8334 44.9584V41.7084ZM15.7084 36.8334C15.7084 39.5257 13.5258 41.7084 10.8334 41.7084V44.9584C15.3207 44.9584 18.9584 41.3208 18.9584 36.8334H15.7084Z" fill="black"/>
  <path d="M6.5 23.8333H15.1667V12.1723C15.1667 10.5616 13.4717 9.51403 12.031 10.2343L7.69771 12.401C6.96367 12.768 6.5 13.5183 6.5 14.3389V23.8333Z" stroke="black" stroke-width="1.5"/>
</svg>