<svg xmlns="http://www.w3.org/2000/svg" width="52" height="52" viewBox="0 0 52 52" fill="none">
  <path d="M8.22093 26.0631C9.3848 20.2438 9.96672 17.3341 11.8896 15.4601C12.245 15.1137 12.6294 14.7986 13.0388 14.518C15.2535 13 18.2208 13 24.1554 13H27.845C33.7797 13 36.747 13 38.9617 14.518C39.371 14.7986 39.7554 15.1137 40.1109 15.4601C42.0336 17.3341 42.6156 20.2438 43.7795 26.0631C45.4505 34.4177 46.2859 38.5951 44.3626 41.5552C44.0144 42.0912 43.6079 42.5869 43.1508 43.0335C40.6253 45.5 36.3652 45.5 27.845 45.5H24.1554C15.6352 45.5 11.3752 45.5 8.84976 43.0335C8.39249 42.5869 7.98602 42.0912 7.63779 41.5552C5.71453 38.5951 6.55 34.4177 8.22093 26.0631Z" stroke="black" stroke-width="1.5"/>
  <path d="M32.4999 21.6667C33.6965 21.6667 34.6666 20.6967 34.6666 19.5C34.6666 18.3034 33.6965 17.3334 32.4999 17.3334C31.3033 17.3334 30.3333 18.3034 30.3333 19.5C30.3333 20.6967 31.3033 21.6667 32.4999 21.6667Z" fill="black"/>
  <path d="M19.4999 21.6667C20.6965 21.6667 21.6666 20.6967 21.6666 19.5C21.6666 18.3034 20.6965 17.3334 19.4999 17.3334C18.3033 17.3334 17.3333 18.3034 17.3333 19.5C17.3333 20.6967 18.3033 21.6667 19.4999 21.6667Z" fill="black"/>
  <path d="M19.5 13V10.8334C19.5 7.24353 22.4101 4.33337 26 4.33337C29.59 4.33337 32.5 7.24353 32.5 10.8334V13" stroke="black" stroke-width="1.5" stroke-linecap="round"/>
</svg>