<svg xmlns="http://www.w3.org/2000/svg" width="22" height="22" viewBox="0 0 22 22" fill="none">
  <path d="M12.4821 20.5197L13.0242 19.6039L11.7333 18.8398L11.1912 19.7557L12.4821 20.5197ZM8.47579 19.6039L9.0179 20.5197L10.3087 19.7557L9.7666 18.8398L8.47579 19.6039ZM11.1912 19.7557C10.9985 20.0813 10.5015 20.0813 10.3087 19.7557L9.0179 20.5197C9.7915 21.8267 11.7085 21.8267 12.4821 20.5197L11.1912 19.7557ZM9.25 1.5H12.25V2.06054e-07H9.25V1.5ZM20 9.25V10.25H21.5V9.25H20ZM1.5 10.25V9.25H2.06054e-07V10.25H1.5ZM2.06054e-07 10.25C2.06054e-07 11.4046 -0.000409827 12.3081 0.0493102 13.0368C0.0995002 13.7723 0.20323 14.3844 0.43769 14.9504L1.82351 14.3764C1.67737 14.0236 1.59081 13.5938 1.54584 12.9347C1.50041 12.2689 1.5 11.4251 1.5 10.25H2.06054e-07ZM6.5525 16.9916C5.29706 16.9699 4.63923 16.8901 4.12359 16.6765L3.54957 18.0623C4.35454 18.3957 5.27138 18.4697 6.52666 18.4913L6.5525 16.9916ZM0.43769 14.9504C1.02128 16.3593 2.14066 17.4787 3.54957 18.0623L4.12359 16.6765C3.08222 16.2451 2.25486 15.4178 1.82351 14.3764L0.43769 14.9504ZM20 10.25C20 11.4251 19.9996 12.2689 19.9542 12.9347C19.9092 13.5938 19.8226 14.0236 19.6765 14.3764L21.0623 14.9504C21.2968 14.3844 21.4005 13.7723 21.4507 13.0368C21.5004 12.3081 21.5 11.4046 21.5 10.25H20ZM14.9733 18.4913C16.2286 18.4697 17.1455 18.3957 17.9504 18.0623L17.3764 16.6765C16.8608 16.8901 16.2029 16.9699 14.9475 16.9916L14.9733 18.4913ZM19.6765 14.3764C19.2451 15.4178 18.4178 16.2451 17.3764 16.6765L17.9504 18.0623C19.3593 17.4787 20.4787 16.3593 21.0623 14.9504L19.6765 14.3764ZM12.25 1.5C13.9012 1.5 15.087 1.50079 16.0119 1.58873C16.9257 1.67561 17.5071 1.84223 17.9706 2.12628L18.7544 0.84732C18.0155 0.39457 17.1774 0.19279 16.1539 0.0954702C15.1415 -0.000789836 13.8722 2.06054e-07 12.25 2.06054e-07V1.5ZM21.5 9.25C21.5 7.62781 21.5008 6.3585 21.4045 5.34611C21.3072 4.32256 21.1054 3.48445 20.6527 2.74563L19.3737 3.52938C19.6578 3.99291 19.8244 4.57434 19.9113 5.48809C19.9992 6.413 20 7.59876 20 9.25H21.5ZM17.9706 2.12628C18.5425 2.47672 19.0233 2.95752 19.3737 3.52938L20.6527 2.74563C20.1786 1.97194 19.5281 1.32144 18.7544 0.84732L17.9706 2.12628ZM9.25 2.06054e-07C7.62781 2.06054e-07 6.3585 -0.000789836 5.34611 0.0954702C4.32256 0.19279 3.48445 0.39457 2.74563 0.84732L3.52938 2.12628C3.99291 1.84223 4.57434 1.67561 5.48809 1.58873C6.413 1.50079 7.59876 1.5 9.25 1.5V2.06054e-07ZM1.5 9.25C1.5 7.59876 1.50079 6.413 1.58873 5.48809C1.67561 4.57434 1.84223 3.99291 2.12628 3.52938L0.84732 2.74563C0.39457 3.48445 0.19279 4.32256 0.0954702 5.34611C-0.000789836 6.3585 2.06054e-07 7.62781 2.06054e-07 9.25H1.5ZM2.74563 0.84732C1.97194 1.32144 1.32144 1.97194 0.84732 2.74563L2.12628 3.52938C2.47672 2.95752 2.95752 2.47672 3.52938 2.12628L2.74563 0.84732ZM9.7666 18.8398C9.5636 18.4968 9.3854 18.1941 9.2121 17.9563C9.0295 17.7059 8.8202 17.4804 8.52986 17.3115L7.77572 18.6082C7.82313 18.6357 7.88772 18.686 7.99985 18.8398C8.12122 19.0064 8.25835 19.2365 8.47579 19.6039L9.7666 18.8398ZM6.52666 18.4913C6.96575 18.4989 7.24387 18.5045 7.45588 18.5279C7.65399 18.5499 7.73078 18.582 7.77572 18.6082L8.52986 17.3115C8.2371 17.1412 7.93246 17.0715 7.62097 17.037C7.32339 17.0041 6.96375 16.9987 6.5525 16.9916L6.52666 18.4913ZM13.0242 19.6039C13.2416 19.2365 13.3787 19.0064 13.5001 18.8398C13.6122 18.686 13.6768 18.6357 13.7242 18.6082L12.9701 17.3115C12.6798 17.4804 12.4704 17.7059 12.2879 17.9563C12.1146 18.1941 11.9364 18.4968 11.7333 18.8398L13.0242 19.6039ZM14.9475 16.9916C14.5362 16.9987 14.1766 17.0041 13.879 17.037C13.5675 17.0715 13.2629 17.1412 12.9701 17.3115L13.7242 18.6082C13.7692 18.582 13.846 18.5499 14.0441 18.5279C14.2561 18.5045 14.5342 18.4989 14.9733 18.4913L14.9475 16.9916Z" fill="black"/>
  <path d="M6.75 9.75H6.759M10.741 9.75H10.75M14.741 9.75H14.75" stroke="black" stroke-width="2" stroke-linecap="round" stroke-linejoin="round"/>
</svg>