<svg xmlns="http://www.w3.org/2000/svg" width="21" height="21" viewBox="0 0 21 21" fill="none">
  <path opacity="0.5" d="M6.87399 4.75935L7.57707 6.01919C8.21158 7.15612 7.95689 8.64759 6.95751 9.64695C6.95751 9.64695 5.74546 10.8592 7.94313 13.057C10.1401 15.254 11.3531 14.0426 11.3531 14.0426C12.3525 13.0432 13.8439 12.7885 14.9809 13.423L16.2407 14.1261C17.9576 15.0842 18.1603 17.4918 16.6513 19.0009C15.7445 19.9076 14.6337 20.6132 13.4057 20.6597C11.3386 20.7381 7.82808 20.215 4.3066 16.6935C0.785145 13.172 0.261982 9.66148 0.34035 7.59434C0.386901 6.3664 1.09245 5.25558 1.99922 4.34883C3.50824 2.8398 5.91585 3.04256 6.87399 4.75935Z" fill="#1C274C"/>
  <path d="M10.3645 1.03632C10.4362 0.593358 10.855 0.292874 11.2979 0.36458C11.3253 0.369834 11.4136 0.386323 11.4598 0.396614C11.5523 0.417208 11.6812 0.448896 11.842 0.495728C12.1635 0.589372 12.6127 0.743649 13.1517 0.99079C14.2311 1.48561 15.6673 2.3512 17.1578 3.84165C18.6482 5.3321 19.5138 6.76839 20.0086 7.84769C20.2558 8.38678 20.4101 8.83593 20.5037 9.15744C20.5505 9.31822 20.5822 9.44717 20.6028 9.5396C20.6131 9.58583 20.6207 9.62294 20.6259 9.65036L20.6321 9.68416C20.7038 10.1271 20.406 10.5632 19.9631 10.6349C19.5214 10.7064 19.1053 10.4073 19.0318 9.96653C19.0296 9.95462 19.0233 9.92287 19.0167 9.89287C19.0032 9.83285 18.9802 9.73771 18.9436 9.61187C18.8702 9.36018 18.7429 8.98607 18.5315 8.52492C18.1092 7.60375 17.3498 6.33172 16.0087 4.9907C14.6677 3.64968 13.3957 2.89027 12.4745 2.46796C12.0134 2.25654 11.6393 2.12921 11.3875 2.05589C11.2617 2.01924 11.1036 1.98294 11.0436 1.96958C10.6026 1.8961 10.293 1.47802 10.3645 1.03632Z" fill="#1C274C"/>
  <path fill-rule="evenodd" clip-rule="evenodd" d="M10.6096 4.77334C10.7329 4.34187 11.1826 4.09203 11.614 4.21531L11.3909 4.99655C11.614 4.21531 11.614 4.21531 11.614 4.21531L11.6157 4.21576L11.6173 4.21624L11.6209 4.21729L11.6293 4.2198L11.6508 4.22648C11.667 4.2317 11.6875 4.2385 11.7118 4.24714C11.7604 4.2644 11.8248 4.28895 11.9036 4.32275C12.0615 4.3904 12.277 4.49485 12.542 4.65162C13.0722 4.96544 13.7961 5.48672 14.6465 6.3371C15.4969 7.1875 16.0181 7.91136 16.332 8.44162C16.4887 8.7065 16.5932 8.92215 16.6609 9.07998C16.6947 9.15885 16.7193 9.22316 16.7365 9.27181C16.7451 9.29613 16.7519 9.31653 16.7572 9.33286L16.7638 9.3543L16.7663 9.3627L16.7674 9.36631L16.7678 9.36798C16.7678 9.36798 16.7683 9.36954 15.987 9.59275L16.7683 9.36954C16.8916 9.801 16.6417 10.2507 16.2103 10.374C15.7825 10.4962 15.3367 10.2517 15.209 9.82691L15.205 9.81523C15.1992 9.79895 15.1873 9.7669 15.1673 9.7201C15.1272 9.62657 15.0545 9.47357 14.9336 9.26926C14.692 8.86113 14.2558 8.24444 13.4974 7.48615C12.7392 6.72787 12.1225 6.29161 11.7144 6.05006C11.51 5.92914 11.3571 5.85645 11.2635 5.81637C11.2167 5.79631 11.1846 5.78435 11.1684 5.77858L11.1567 5.77458C10.732 5.64688 10.4874 5.20114 10.6096 4.77334Z" fill="#1C274C"/>
</svg>