<svg xmlns="http://www.w3.org/2000/svg" width="49" height="49" viewBox="0 0 49 49" fill="none">
  <path d="M24.6272 44.9167H24.3728C22.8232 44.9167 22.0482 44.9167 21.3744 44.6117C20.7007 44.3069 20.2166 43.737 19.2485 42.5976L14.3863 36.8748C13.4369 35.7574 12.9621 35.1988 12.7155 34.5367C12.4689 33.8748 12.4689 33.1592 12.4689 31.7282V20.9825C12.4689 19.5841 12.4689 18.885 12.1687 18.2704C11.8685 17.6559 11.3048 17.2009 10.1773 16.2909L9.75394 15.9492C7.34073 14.0016 6.13412 13.0278 6.12506 11.6181C6.11597 10.2085 7.18617 9.32331 9.32655 7.553C9.65055 7.28501 9.97152 7.03434 10.2814 6.812C11.4507 5.97316 13.1448 5.04824 14.3368 4.43107C15.2196 3.97402 16.2816 3.97267 17.1827 4.39691L17.7217 4.65065C17.8632 4.71725 17.9837 4.81747 18.0715 4.9414C21.1296 9.26073 27.8704 9.26073 30.9286 4.9414C31.0162 4.81747 31.1368 4.71725 31.2783 4.65065L31.8173 4.39691C32.7183 3.97267 33.7804 3.97402 34.6632 4.43107C35.8551 5.04824 37.5493 5.97316 38.7186 6.812C39.0285 7.03434 39.3494 7.28501 39.6735 7.553C41.8137 9.32331 42.884 10.2085 42.875 11.6181C42.8658 13.0278 41.6592 14.0016 39.2461 15.9492L38.8227 16.2909C37.6953 17.2009 37.1314 17.6559 36.8313 18.2704C36.5311 18.885 36.5311 19.5841 36.5311 20.9825V31.7282C36.5311 33.1592 36.5311 33.8748 36.2845 34.5367C36.0379 35.1988 35.5632 35.7574 34.6138 36.8748L29.7516 42.5976C28.7834 43.737 28.2993 44.3069 27.6256 44.6117C26.9518 44.9167 26.1768 44.9167 24.6272 44.9167Z" stroke="black" stroke-width="1.5" stroke-linecap="round"/>
</svg>