<svg xmlns="http://www.w3.org/2000/svg" width="16" height="18" viewBox="0 0 16 18" fill="none">
  <path d="M12.635 5.69948L12.9826 5.31328C13.5585 4.67341 14.4922 4.67341 15.0681 5.31328C15.644 5.95316 15.644 6.9906 15.0681 7.63045L14.7205 8.0167M12.635 5.69948C12.635 5.69948 12.6785 6.52016 13.3302 7.24428C13.9819 7.96837 14.7205 8.0167 14.7205 8.0167M12.635 5.69948L9.43956 9.24996C9.22311 9.49046 9.11489 9.61071 9.02181 9.74329C8.91209 9.89971 8.81796 10.069 8.74116 10.248C8.67606 10.3998 8.62761 10.561 8.53086 10.8837L8.22096 11.9167L8.12069 12.2509M14.7205 8.0167L11.5251 11.5672C11.3086 11.8077 11.2004 11.928 11.0811 12.0314C10.9403 12.1533 10.788 12.2579 10.6269 12.3432C10.4902 12.4155 10.3451 12.4694 10.0547 12.5769L9.12501 12.9212L8.82426 13.0326M8.12069 12.2509L8.02041 12.5851C7.97279 12.7439 8.00999 12.919 8.11649 13.0373C8.22299 13.1556 8.38056 13.197 8.52344 13.144L8.82426 13.0326M8.12069 12.2509L8.82426 13.0326" stroke="black"/>
  <path d="M5 9.83337H6.875" stroke="black" stroke-linecap="round"/>
  <path d="M5 6.5H9.875" stroke="black" stroke-linecap="round"/>
  <path d="M5 13.1666H6.125" stroke="black" stroke-linecap="round"/>
  <path d="M13.8713 1.64293C12.9927 0.666626 11.5784 0.666626 8.75 0.666626H7.25C4.42157 0.666626 3.00736 0.666626 2.12868 1.64293C1.25 2.61925 1.25 4.19059 1.25 7.33329V10.6666C1.25 13.8093 1.25 15.3807 2.12868 16.357C3.00736 17.3333 4.42157 17.3333 7.25 17.3333H8.75C11.5784 17.3333 12.9927 17.3333 13.8713 16.357C14.5786 15.571 14.7166 14.3996 14.7435 12.3333" stroke="black" stroke-linecap="round"/>
</svg>