<svg xmlns="http://www.w3.org/2000/svg" width="68" height="68" viewBox="0 0 68 68" fill="none">
  <path d="M16.8493 6.10479C16.8493 7.40529 17.2593 8.61099 17.9573 9.60035C15.7926 12.4347 14.4088 15.8622 14.4088 19.6738C14.4088 25.0605 16.6077 28.6631 20.1611 30.9164L3.66558 40.4016C2.02338 41.3443 0.812231 42.8847 0.286871 44.6986C-0.238489 46.5125 -0.0371134 48.4587 0.848642 50.1278C1.7344 51.7969 3.2355 53.0588 5.03622 53.6481C6.83693 54.2374 8.79692 54.1081 10.5039 53.2875C9.93277 54.6499 9.72759 56.137 9.90861 57.6024C10.0896 59.0677 10.6506 60.4609 11.5363 61.6448L13.7206 64.5691C14.516 65.6345 15.5507 66.4996 16.742 67.0954C17.9332 67.6912 19.2479 68.0009 20.5809 68C21.9139 67.9991 23.2281 67.6874 24.4185 67.09C25.6089 66.4925 26.6424 65.6259 27.4363 64.5594C29.5234 65.2911 31.7204 65.6635 33.933 65.6606C36.2198 65.6606 38.4138 65.2716 40.4517 64.5497C41.2447 65.6177 42.2778 66.4859 43.4683 67.0847C44.6587 67.6836 45.9734 67.9965 47.3071 67.9984C48.6407 68.0003 49.9563 67.6911 51.1485 67.0956C52.3406 66.5001 53.3762 65.6349 54.1723 64.5691L56.359 61.6448C57.2466 60.4584 57.808 59.0619 57.9877 57.5932C58.1675 56.1245 57.9594 54.6346 57.384 53.2705C59.0737 54.1184 61.0273 54.282 62.8353 53.7268C64.6433 53.1717 66.1654 51.9409 67.0824 50.2926C67.9995 48.6443 68.2403 46.7064 67.7545 44.8852C67.2686 43.0639 66.0938 41.5007 64.4762 40.5232L48.1662 30.6102C51.4462 28.347 53.4572 24.8247 53.4572 19.6738C53.4572 15.8622 52.0735 12.4347 49.9087 9.60035C50.8381 8.29928 51.2161 6.68612 50.9609 5.10968C50.7057 3.53324 49.8378 2.12019 48.5449 1.17606C47.2519 0.231933 45.6379 -0.167404 44.0517 0.0643952C42.4655 0.296194 41.0346 1.1405 40.0685 2.41476C38.0038 1.65391 35.9025 1.24309 33.933 1.24309C31.9635 1.24309 29.8622 1.65391 27.7975 2.41476C27.0227 1.40542 25.9498 0.663356 24.7296 0.292901C23.5094 -0.077553 22.2033 -0.0577606 20.995 0.349497C19.7866 0.756754 18.7369 1.53099 17.9932 2.56334C17.2496 3.59569 16.8496 4.83422 16.8493 6.10479ZM22.9506 2.45852C23.9171 2.45852 24.7957 2.83287 25.4497 3.44058C23.299 4.53008 21.3379 5.95651 19.6413 7.66539C19.377 7.10957 19.2582 6.49619 19.2959 5.88234C19.3335 5.26848 19.5265 4.67409 19.8567 4.15446C20.187 3.63483 20.6438 3.20684 21.1848 2.91032C21.7257 2.6138 22.3332 2.45838 22.9506 2.45852ZM46.1357 48.7467C44.7529 49.3363 43.552 50.2809 42.6555 51.4839L40.4687 54.4082C39.3044 55.9613 38.71 57.8653 38.7848 59.8022C37.2961 60.444 35.656 60.7989 33.933 60.7989C32.2198 60.7989 30.5895 60.4488 29.1105 59.8144C29.1879 57.8733 28.5934 55.9647 27.4266 54.4082L25.2398 51.4839C24.3369 50.2723 23.1253 49.3231 21.7304 48.7346V48.6446C21.7304 45.4211 23.016 42.3296 25.3044 40.0503C27.5929 37.7709 30.6967 36.4904 33.933 36.4904C37.1694 36.4904 40.2731 37.7709 42.5616 40.0503C44.85 42.3296 46.1357 45.4211 46.1357 48.6446V48.7467ZM48.5762 6.10479C48.5762 6.66388 48.4493 7.19381 48.2247 7.66539C46.5281 5.95651 44.567 4.53008 42.4163 3.44058C42.9376 2.95548 43.5899 2.63268 44.2929 2.51185C44.9959 2.39102 45.7191 2.47743 46.3735 2.76046C47.0279 3.04349 47.585 3.5108 47.9763 4.10495C48.3676 4.6991 48.5761 5.3942 48.5762 6.10479ZM27.8317 16.8734C27.5081 16.8734 27.1977 16.7454 26.9688 16.5175C26.74 16.2895 26.6114 15.9804 26.6114 15.658C26.6114 15.3357 26.74 15.0265 26.9688 14.7986C27.1977 14.5706 27.5081 14.4426 27.8317 14.4426C28.1553 14.4426 28.4657 14.5706 28.6945 14.7986C28.9234 15.0265 29.052 15.3357 29.052 15.658C29.052 15.9804 28.9234 16.2895 28.6945 16.5175C28.4657 16.7454 28.1553 16.8734 27.8317 16.8734ZM33.933 30.2431C29.2155 30.2431 25.3912 26.3051 25.3912 22.9506C25.3912 19.596 29.2155 16.8734 33.933 16.8734C38.6506 16.8734 42.4749 19.596 42.4749 22.9506C42.4749 26.3051 38.6506 30.2431 33.933 30.2431ZM41.2546 15.658C41.2546 15.9804 41.126 16.2895 40.8972 16.5175C40.6683 16.7454 40.358 16.8734 40.0343 16.8734C39.7107 16.8734 39.4003 16.7454 39.1715 16.5175C38.9426 16.2895 38.8141 15.9804 38.8141 15.658C38.8141 15.3357 38.9426 15.0265 39.1715 14.7986C39.4003 14.5706 39.7107 14.4426 40.0343 14.4426C40.358 14.4426 40.6683 14.5706 40.8972 14.7986C41.126 15.0265 41.2546 15.3357 41.2546 15.658ZM22.3747 53.7008L24.5614 56.6275C24.9442 57.1397 25.222 57.722 25.3789 58.3411C25.5358 58.9603 25.5687 59.6041 25.4758 60.2359C25.3829 60.8677 25.166 61.4751 24.8374 62.0234C24.5088 62.5717 24.075 63.0502 23.5608 63.4315C23.0465 63.8128 22.4619 64.0895 21.8403 64.2457C21.2187 64.402 20.5723 64.4348 19.938 64.3423C19.3037 64.2497 18.6939 64.0337 18.1434 63.7064C17.5929 63.3791 17.1126 62.947 16.7297 62.4348L14.543 59.5081C13.7702 58.4737 13.4415 57.1758 13.6294 55.9001C13.8173 54.6243 14.5063 53.4751 15.5448 52.7053C16.5834 51.9356 17.8864 51.6083 19.1672 51.7954C20.4481 51.9825 21.6018 52.6664 22.3747 53.7008ZM45.5206 53.7008C45.9036 53.1887 46.3841 52.7569 46.9347 52.4298C47.4853 52.1027 48.0951 51.8869 48.7294 51.7945C49.3638 51.7022 50.0101 51.7352 50.6316 51.8917C51.2531 52.0482 51.8376 52.3251 52.3517 52.7066C52.8658 53.088 53.2994 53.5666 53.6277 54.115C53.9561 54.6634 54.1728 55.2708 54.2655 55.9026C54.3582 56.5344 54.3251 57.1782 54.1679 57.7973C54.0108 58.4163 53.7328 58.9985 53.3499 59.5105L51.1656 62.4348C50.7828 62.947 50.3024 63.3791 49.7519 63.7064C49.2014 64.0337 48.5916 64.2497 47.9573 64.3423C47.323 64.4348 46.6766 64.402 46.055 64.2457C45.4334 64.0895 44.8488 63.8128 44.3345 63.4315C43.8203 63.0502 43.3865 62.5717 43.0579 62.0234C42.7293 61.4751 42.5124 60.8677 42.4195 60.2359C42.3266 59.6041 42.3595 58.9603 42.5164 58.3411C42.6733 57.722 42.9511 57.1397 43.3339 56.6275L45.5206 53.7008Z" fill="black"/>
</svg>