<svg xmlns="http://www.w3.org/2000/svg" width="22" height="22" viewBox="0 0 22 22" fill="none">
  <path d="M12.2167 22H9.78329C5.9921 22 4.0965 22 2.80393 20.887C1.51135 19.774 1.24327 17.911 0.707121 14.1847L0.400474 12.0537C-0.0169104 9.15288 -0.225602 7.70252 0.368904 6.46245C0.96341 5.22236 2.22881 4.46857 4.7596 2.96099L6.28292 2.05356C8.58114 0.684519 9.73027 0 11 0C12.2697 0 13.4189 0.684519 15.717 2.05356L17.2404 2.96099C19.7712 4.46857 21.0366 5.22236 21.6311 6.46245C22.2256 7.70252 22.0169 9.15288 21.5995 12.0537L21.2929 14.1847C20.7567 17.911 20.4886 19.774 19.1961 20.887C17.9035 22 16.0079 22 12.2167 22Z" fill="#FFB9BC"/>
  <path d="M6.875 17.5999C6.875 17.1443 7.24437 16.7749 7.7 16.7749H14.3C14.7556 16.7749 15.125 17.1443 15.125 17.5999C15.125 18.0555 14.7556 18.4249 14.3 18.4249H7.7C7.24437 18.4249 6.875 18.0555 6.875 17.5999Z" fill="black"/>
</svg>