<svg xmlns="http://www.w3.org/2000/svg" width="23" height="23" viewBox="0 0 23 23" fill="none">
  <path d="M22.4998 12.035C22.4981 13.6883 22.4855 15.0935 22.3916 16.2465C22.2825 17.5846 22.0591 18.7027 21.5591 19.6312C21.3386 20.0407 21.0675 20.4076 20.7376 20.7375C19.8011 21.6739 18.6081 22.0981 17.0962 22.3014C15.6189 22.5 13.7258 22.5 11.3101 22.5H11.1899C8.7742 22.5 6.88102 22.5 5.40388 22.3014C3.89195 22.0981 2.6989 21.6739 1.76247 20.7375C0.932299 19.9073 0.503584 18.8741 0.275603 17.5923C0.051649 16.3332 0.0106764 14.7666 0.00216015 12.8213C1.52315e-07 12.3265 1.69323e-07 11.8031 1.69323e-07 11.251V11.1899C-1.10807e-05 8.77418 -2.22288e-05 6.88099 0.198574 5.40386C0.40185 3.89192 0.826043 2.69887 1.76247 1.76244C2.6989 0.826017 3.89195 0.401825 5.40388 0.198548C6.7175 0.0219346 8.40764 0.00239334 10.4648 0.000244594C10.8982 -0.000216656 11.25 0.35138 11.25 0.784853C11.25 1.21834 10.8981 1.56957 10.4646 1.57004C8.37843 1.57224 6.82595 1.59124 5.61304 1.75431C4.27518 1.93419 3.46861 2.27629 2.87246 2.87244C2.27631 3.46859 1.93421 4.27515 1.75434 5.61302C1.57143 6.97347 1.56977 8.76114 1.56977 11.25C1.56977 11.554 1.56977 11.8478 1.57013 12.1324L2.61783 11.2158C3.57148 10.3812 5.00878 10.4292 5.90481 11.3251L10.3941 15.8144C11.1133 16.5337 12.2454 16.6316 13.0776 16.0469L13.3896 15.8275C14.5871 14.986 16.2072 15.0835 17.2951 16.0626L20.2572 18.7285C20.5553 18.1023 20.7324 17.2796 20.8269 16.1191C20.916 15.0256 20.9283 13.6974 20.93 12.0351C20.9304 11.6016 21.2816 11.25 21.7151 11.25C22.1486 11.25 22.5002 11.6015 22.4998 12.035Z" fill="black"/>
  <path fill-rule="evenodd" clip-rule="evenodd" d="M17.4375 10.125C15.051 10.125 13.8578 10.125 13.1164 9.38363C12.375 8.64223 12.375 7.44899 12.375 5.0625C12.375 2.67601 12.375 1.48277 13.1164 0.741386C13.8578 -6.70552e-08 15.051 0 17.4375 0C19.824 0 21.0172 -6.70552e-08 21.7586 0.741386C22.5 1.48277 22.5 2.67601 22.5 5.0625C22.5 7.44899 22.5 8.64223 21.7586 9.38363C21.0172 10.125 19.824 10.125 17.4375 10.125ZM19.9261 2.57393C20.358 3.00585 20.358 3.70613 19.9261 4.13804L19.861 4.20311C19.7982 4.26589 19.7106 4.29433 19.6232 4.27864C19.5681 4.26878 19.4878 4.2505 19.3918 4.21722C19.2001 4.15068 18.9484 4.02503 18.7117 3.78835C18.475 3.55167 18.3493 3.2999 18.2828 3.10811C18.2495 3.0122 18.2312 2.93183 18.2214 2.87686C18.2057 2.78947 18.2341 2.70178 18.2969 2.639L18.3619 2.57393C18.7939 2.14202 19.4941 2.14202 19.9261 2.57393ZM17.2688 6.79534C17.1064 6.95766 17.0253 7.03882 16.9358 7.10863C16.8302 7.19097 16.716 7.26156 16.5951 7.31915C16.4927 7.36798 16.3838 7.40428 16.166 7.47687L15.0176 7.85969C14.9104 7.89541 14.7923 7.86752 14.7124 7.78763C14.6325 7.70776 14.6046 7.5896 14.6403 7.48242L15.0231 6.33399C15.0957 6.1162 15.132 6.00731 15.1809 5.90486C15.2385 5.784 15.309 5.66978 15.3914 5.56421C15.4612 5.47472 15.5423 5.39355 15.7047 5.23125L17.7283 3.20756C17.7772 3.15863 17.8615 3.18102 17.8842 3.24639C17.967 3.48526 18.1226 3.79599 18.4133 4.08665C18.704 4.37732 19.0147 4.53292 19.2536 4.61579C19.3189 4.63846 19.3413 4.72274 19.2924 4.77166L17.2688 6.79534Z" fill="black"/>
</svg>