<svg xmlns="http://www.w3.org/2000/svg" width="40" height="40" viewBox="0 0 40 40" fill="none">
  <path d="M20.2452 28.3542C22.3959 28.3542 24.4584 27.4999 25.9791 25.9791C27.4999 24.4584 28.3542 22.3959 28.3542 20.2452C28.3542 18.0946 27.4999 16.032 25.9791 14.5113C24.4584 12.9906 22.3959 12.1362 20.2452 12.1362C18.0946 12.1362 16.032 12.9906 14.5113 14.5113C12.9906 16.032 12.1362 18.0946 12.1362 20.2452C12.1362 22.3959 12.9906 24.4584 14.5113 25.9791C16.032 27.4999 18.0946 28.3542 20.2452 28.3542Z" stroke="black" stroke-width="3" stroke-linecap="round" stroke-linejoin="round"/>
  <path d="M2 28.3542V12.1362C2 9.44794 3.06792 6.86975 4.96883 4.96883C6.86975 3.06792 9.44794 2 12.1362 2H28.3542C31.0425 2 33.6207 3.06792 35.5216 4.96883C37.4225 6.86975 38.4904 9.44794 38.4904 12.1362V28.3542C38.4904 31.0425 37.4225 33.6207 35.5216 35.5216C33.6207 37.4225 31.0425 38.4904 28.3542 38.4904H12.1362C9.44794 38.4904 6.86975 37.4225 4.96883 35.5216C3.06792 33.6207 2 31.0425 2 28.3542Z" stroke="black" stroke-width="3"/>
  <path d="M31.3949 9.11556L31.4152 9.09326" stroke="black" stroke-width="3" stroke-linecap="round" stroke-linejoin="round"/>
</svg>