<svg xmlns="http://www.w3.org/2000/svg" width="65" height="63" viewBox="0 0 65 63" fill="none">
  <path d="M51.5733 26.9333V50.4M51.5733 50.4V60.6666H13.44V50.4M51.5733 50.4H61.84C61.84 50.4 64.2013 14.848 61.84 10.8C59.4786 6.752 41.3067 2 41.3067 2M13.44 50.4H3.17334C3.17334 50.4 0.533331 15.904 3.17334 10.8C5.81334 5.696 23.7067 2 23.7067 2M13.44 50.4V26.9333M23.7067 2H41.3067M23.7067 2L32.5067 22.5333M41.3067 2L32.5067 22.5333M32.5067 22.5333V60.6666" stroke="black" stroke-width="3" stroke-linecap="round" stroke-linejoin="round"/>
  <path d="M23.7066 2L17.84 13.7333L23.7066 21.8L20.7733 29.8667L32.5066 50.4L44.24 29.8667L41.3066 21.8L48.64 13.7333L41.3066 2" stroke="black" stroke-width="3" stroke-linecap="round" stroke-linejoin="round"/>
</svg>