<svg xmlns="http://www.w3.org/2000/svg" width="24" height="24" viewBox="0 0 24 24" fill="none">
  <path d="M22 12.0003C22 6.4775 17.5228 2.0003 12 2.0003C6.47715 2.0003 2 6.4775 2 12.0003C2 17.5232 6.47715 22.0003 12 22.0003C17.5228 22.0003 22 17.5232 22 12.0003Z" fill="#FF9A9E"/>
  <path d="M13 16.0003C13 15.448 12.5523 15.0003 12 15.0003C11.4477 15.0003 11 15.448 11 16.0003C11 16.5526 11.4477 17.0003 12 17.0003C12.5523 17.0003 13 16.5526 13 16.0003Z" fill="#1C274C"/>
  <path d="M13 12.0003C13 11.448 12.5523 11.0003 12 11.0003C11.4477 11.0003 11 11.448 11 12.0003C11 12.5526 11.4477 13.0003 12 13.0003C12.5523 13.0003 13 12.5526 13 12.0003Z" fill="#1C274C"/>
  <path d="M13 8.00031C13 7.44801 12.5523 7.0003 12 7.0003C11.4477 7.0003 11 7.44801 11 8.00031C11 8.55261 11.4477 9.00031 12 9.00031C12.5523 9.00031 13 8.55261 13 8.00031Z" fill="#1C274C"/>
</svg>