<svg xmlns="http://www.w3.org/2000/svg" width="22" height="23" viewBox="0 0 22 23" fill="none">
  <path d="M0 8.79961C0 8.31351 -6.14647e-08 7.30591 0.00207885 6.87469H10.162V19.7992H8.79963C6.81272 19.7992 5.30166 19.7991 4.12483 19.6576V21.9991C4.12483 22.4547 3.75547 22.824 3.29986 22.824C2.84425 22.824 2.4749 22.4547 2.4749 21.9991V19.2766C2.01139 19.0932 1.62352 18.8453 1.28867 18.5104C1.31125e-07 17.2218 0 15.1477 0 10.9995V8.79961Z" fill="#FFB9BC"/>
  <path d="M21.9991 6.87469C22.0012 7.30591 21.9991 8.31351 21.9991 8.79961V10.9995C21.9991 15.1477 21.9991 17.2218 20.7104 18.5104C20.3756 18.8453 19.9877 19.0932 19.5242 19.2766V21.9991C19.5242 22.4547 19.1549 22.824 18.6993 22.824C18.2437 22.824 17.8743 22.4547 17.8743 21.9991V19.6576C16.6975 19.7991 14.8989 19.7992 12.9121 19.7992H11.812V6.87469H21.9991Z" fill="#FFB9BC"/>
  <path d="M15.1244 10.9995C15.1244 10.5439 14.7551 10.1746 14.2995 10.1746C13.8439 10.1746 13.4745 10.5439 13.4745 10.9995V14.2994C13.4745 14.755 13.8439 15.1244 14.2995 15.1244C14.7551 15.1244 15.1244 14.755 15.1244 14.2994V10.9995Z" fill="black"/>
  <path d="M8.52469 10.9995C8.52469 10.5439 8.15533 10.1746 7.69972 10.1746C7.24411 10.1746 6.87476 10.5439 6.87476 10.9995V14.2994C6.87476 14.755 7.24411 15.1244 7.69972 15.1244C8.15533 15.1244 8.52469 14.755 8.52469 14.2994V10.9995Z" fill="black"/>
  <path d="M1.28835 1.28867C0.360492 2.21653 0.100694 3.55155 0.0279541 5.77476V6.87471H10.1746V19.7981H11.8245V6.87471H21.9705V5.77476C21.8977 3.55155 21.6379 2.21653 20.7101 1.28867C19.4214 1.31125e-07 17.3473 0 13.1991 0H8.79929C4.65111 0 2.57702 1.31125e-07 1.28835 1.28867Z" fill="#FF7379"/>
</svg>