<svg xmlns="http://www.w3.org/2000/svg" width="18" height="19" viewBox="0 0 18 19" fill="none">
  <path d="M17 4H1" stroke="black" stroke-linecap="round"/>
  <path d="M15 6L14.5624 12.6231C14.3941 15.1718 14.3099 16.4462 13.4871 17.2231C12.6643 18 11.3988 18 8.86779 18H8.13221C5.60117 18 4.33567 18 3.51285 17.2231C2.69005 16.4462 2.60587 15.1718 2.4375 12.6231L2 6" stroke="black" stroke-linecap="round"/>
  <path d="M6 9L7 13" stroke="black" stroke-linecap="round"/>
  <path d="M11 9L10 13" stroke="black" stroke-linecap="round"/>
  <path d="M3 4C3.05588 4 3.08382 4 3.10915 3.99936C3.93259 3.97849 4.65902 3.45491 4.93922 2.68032C4.94784 2.65649 4.95667 2.62999 4.97434 2.57697L5.07143 2.28571C5.15431 2.03708 5.19575 1.91276 5.25071 1.8072C5.47001 1.38607 5.87574 1.09364 6.34461 1.01877C6.46213 1 6.5932 1 6.8553 1H10.1447C10.4068 1 10.5379 1 10.6554 1.01877C11.1243 1.09364 11.53 1.38607 11.7493 1.8072C11.8043 1.91276 11.8457 2.03708 11.9286 2.28571L12.0257 2.57697C12.0433 2.62992 12.0522 2.65651 12.0608 2.68032C12.341 3.45491 13.0674 3.97849 13.8909 3.99936C13.9162 4 13.9441 4 14 4" stroke="black"/>
</svg>