<svg xmlns="http://www.w3.org/2000/svg" width="58" height="43" viewBox="0 0 58 43" fill="none">
  <mask id="path-1-outside-1_308_410" maskUnits="userSpaceOnUse" x="0" y="0" width="58" height="43" fill="black">
    <rect fill="white" width="58" height="43"/>
    <path d="M37.911 16.625C40.4515 10.5971 46.6607 5.25041 49.8958 2C51.2436 2.81291 56 5.17363 56 10.5312C56 15.4062 54.2237 19.1978 52.3375 20.2812L45.0284 25.389C41.7985 27.6463 39.081 30.5572 37.0527 33.9325L32.8042 41H2C2 41 4.72521 38.1562 6.35298 36.9375C7.98075 35.7188 19.1554 28.9746 23.0376 26.375C31.5834 31.25 35.8563 21.5 37.911 16.625ZM54.7792 17.8438V29.4219V41"/>
  </mask>
  <path d="M37.911 16.625L39.754 17.4018L39.754 17.4018L37.911 16.625ZM49.8958 2L50.9288 0.28739C50.14 -0.188384 49.1282 -0.063808 48.4783 0.589107L49.8958 2ZM52.3375 20.2812L51.3413 18.547C51.2901 18.5764 51.2403 18.6081 51.1919 18.6419L52.3375 20.2812ZM45.0284 25.389L43.8828 23.7497L43.8827 23.7497L45.0284 25.389ZM37.0527 33.9325L38.7669 34.9629L38.767 34.9626L37.0527 33.9325ZM32.8042 41V43C33.5062 43 34.1567 42.632 34.5184 42.0304L32.8042 41ZM2 41L0.55601 39.6162C0.00167254 40.1947 -0.153969 41.0481 0.16049 41.785C0.474949 42.5219 1.19882 43 2 43L2 41ZM23.0376 26.375L24.0286 24.6378C23.3698 24.262 22.5551 24.2911 21.9248 24.7132L23.0376 26.375ZM56.7792 17.8438C56.7792 16.7392 55.8837 15.8438 54.7792 15.8438C53.6746 15.8438 52.7792 16.7392 52.7792 17.8438H56.7792ZM52.7792 41C52.7792 42.1046 53.6746 43 54.7792 43C55.8837 43 56.7792 42.1046 56.7792 41H52.7792ZM39.754 17.4018C40.8936 14.6977 42.9035 12.0524 45.1214 9.61781C47.3636 7.15652 49.5946 5.13779 51.3134 3.41089L48.4783 0.589107C46.9619 2.11261 44.4707 4.39242 42.1644 6.92404C39.8338 9.48238 37.4689 12.5244 36.068 15.8482L39.754 17.4018ZM48.8629 3.71261C50.4779 4.6867 54 6.49474 54 10.5312H58C58 3.85251 52.0094 0.939117 50.9288 0.28739L48.8629 3.71261ZM54 10.5312C54 12.7349 53.5971 14.6462 53.0202 16.0827C52.4152 17.5888 51.7238 18.3273 51.3413 18.547L53.3337 22.0155C54.8374 21.1517 55.9772 19.4527 56.732 17.5735C57.5147 15.6246 58 13.2026 58 10.5312H54ZM51.1919 18.6419L43.8828 23.7497L46.174 27.0284L53.4831 21.9206L51.1919 18.6419ZM43.8827 23.7497C40.4228 26.1677 37.5114 29.2862 35.3384 32.9023L38.767 34.9626C40.6505 31.8283 43.1742 29.1248 46.1741 27.0284L43.8827 23.7497ZM35.3386 32.9021L31.0901 39.9696L34.5184 42.0304L38.7669 34.9629L35.3386 32.9021ZM32.8042 39H2V43H32.8042V39ZM2 41C3.44399 42.3838 3.44394 42.3838 3.44391 42.3839C3.44391 42.3839 3.44388 42.3839 3.44389 42.3839C3.44389 42.3839 3.44394 42.3838 3.44403 42.3838C3.44421 42.3836 3.44455 42.3832 3.44505 42.3827C3.44605 42.3816 3.44771 42.3799 3.44999 42.3775C3.45456 42.3728 3.46166 42.3654 3.47116 42.3555C3.49018 42.3358 3.51884 42.3061 3.5562 42.2676C3.63096 42.1905 3.74043 42.0781 3.8772 41.939C4.15113 41.6605 4.53263 41.277 4.9628 40.8573C5.84827 39.9933 6.85352 39.0612 7.55167 38.5385L5.15429 35.3365C4.22467 36.0325 3.05343 37.1317 2.16935 37.9943C1.71475 38.4379 1.31321 38.8415 1.0253 39.1342C0.881146 39.2808 0.764992 39.4001 0.684351 39.4833C0.644019 39.5249 0.612537 39.5575 0.590841 39.58C0.579993 39.5912 0.571588 39.6 0.565745 39.6061C0.562823 39.6091 0.560541 39.6115 0.558914 39.6132C0.5581 39.614 0.55745 39.6147 0.556966 39.6152C0.556723 39.6155 0.556522 39.6157 0.556363 39.6158C0.556283 39.6159 0.556195 39.616 0.556155 39.6161C0.556077 39.6161 0.55601 39.6162 2 41ZM7.55167 38.5385C8.27416 37.9975 11.3561 36.0777 14.9052 33.8729C18.3697 31.7207 22.173 29.3609 24.1504 28.0368L21.9248 24.7132C20.02 25.9887 16.2948 28.3007 12.7945 30.4752C9.37879 32.5971 6.05957 34.6587 5.15429 35.3365L7.55167 38.5385ZM22.0466 28.1122C24.5089 29.5168 26.8564 29.9678 29.0444 29.5599C31.2027 29.1575 32.9517 27.9668 34.3356 26.5575C37.0385 23.8046 38.7492 19.7857 39.754 17.4018L36.068 15.8482C35.0181 18.3393 33.565 21.6329 31.4814 23.755C30.4719 24.7832 29.422 25.4206 28.3114 25.6276C27.2305 25.8291 25.8392 25.6707 24.0286 24.6378L22.0466 28.1122ZM52.7792 17.8438V29.4219H56.7792V17.8438H52.7792ZM52.7792 29.4219V41H56.7792V29.4219H52.7792Z" fill="black" mask="url(#path-1-outside-1_308_410)"/>
</svg>