<svg xmlns="http://www.w3.org/2000/svg" width="48" height="48" viewBox="0 0 48 48" fill="none">
  <path d="M16.444 36.4292L12.5175 41.9262C12.3567 42.1514 12.2763 42.264 12.2069 42.3512C10.6412 44.322 7.73696 44.5624 5.86848 42.8758C5.78572 42.8012 5.6877 42.7032 5.4923 42.5078C5.29672 42.3122 5.19892 42.2144 5.12418 42.1316C3.43762 40.263 3.67798 37.3588 5.64876 35.793C5.73606 35.7238 5.8489 35.643 6.07372 35.4826L11.5709 31.556M16.444 36.4292C15.7361 35.7862 14.9347 34.9848 13.975 34.025C13.0153 33.0654 12.2139 32.2638 11.5709 31.556M16.444 36.4292C17.8814 37.7346 18.9336 38.3874 20.1442 38.3874C21.9512 38.3874 23.4052 36.9332 26.3134 34.025L34.025 26.3134C36.9332 23.4052 38.3874 21.9512 38.3874 20.1442C38.3874 18.9336 37.7346 17.8814 36.4292 16.444M11.5709 31.556C10.2654 30.1186 9.61268 29.0664 9.61268 27.8558C9.61268 26.0488 11.0668 24.5948 13.975 21.6866L21.6866 13.975C24.5948 11.0668 26.0488 9.61268 27.8558 9.61268C29.0664 9.61268 30.1186 10.2654 31.556 11.5709M36.4292 16.444L41.9262 12.5175C42.1514 12.3567 42.264 12.2763 42.3512 12.2069C44.322 10.6412 44.5624 7.73696 42.8758 5.86848C42.8012 5.78572 42.7032 5.6877 42.5078 5.4923C42.3122 5.29672 42.2144 5.19892 42.1316 5.12418C40.263 3.43762 37.3588 3.67798 35.793 5.64876C35.7238 5.73606 35.643 5.8489 35.4826 6.07372L31.556 11.5709M36.4292 16.444C35.7862 15.7361 34.9848 14.9347 34.025 13.975C33.0654 13.0153 32.2638 12.2139 31.556 11.5709" stroke="black" stroke-width="1.5"/>
</svg>