<svg xmlns="http://www.w3.org/2000/svg" width="20" height="20" viewBox="0 0 20 20" fill="none">
  <path opacity="0.5" d="M1.46447 18.5356C2.92893 20.0001 5.28595 20.0001 10 20.0001C14.714 20.0001 17.0711 20.0001 18.5355 18.5356C20 17.0711 20 14.714 20 10C20 5.28595 20 2.92893 18.5355 1.46447C17.0711 -1.19209e-07 14.714 0 10 0C5.28595 0 2.92893 -1.19209e-07 1.46447 1.46447C-1.19209e-07 2.92893 0 5.28602 0 10.0001C0 14.7141 -1.19209e-07 17.0711 1.46447 18.5356Z" fill="#FF7379"/>
  <path d="M5 15.25C4.58579 15.25 4.25 15.5858 4.25 16C4.25 16.4142 4.58579 16.75 5 16.75H15C15.4142 16.75 15.75 16.4142 15.75 16C15.75 15.5858 15.4142 15.25 15 15.25H5Z" fill="black"/>
  <path d="M5.7649 9.8976C5.7503 9.6442 5.75 9.3043 5.75 8.8076V0.0687399C6.9058 -1.11759e-07 8.2996 0 10 0C11.7004 0 13.0942 -1.11759e-07 14.25 0.0687399V8.8076C14.25 9.3043 14.2497 9.6442 14.2351 9.8976C14.22 10.1601 14.1923 10.2408 14.1854 10.2563C14.0383 10.5876 13.6753 10.7662 13.323 10.6807C13.3066 10.6767 13.2257 10.6493 13.0085 10.5012C12.7989 10.3582 12.5294 10.151 12.1358 9.848L12.0688 9.7964C11.6986 9.5109 11.4101 9.2885 11.0958 9.152C10.3968 8.8483 9.6032 8.8483 8.9042 9.152C8.5899 9.2885 8.3014 9.5109 7.9312 9.7964L7.86419 9.848C7.47062 10.151 7.20112 10.3582 6.99148 10.5012C6.77428 10.6493 6.69342 10.6767 6.67695 10.6807C6.32471 10.7662 5.96171 10.5876 5.81457 10.2563C5.80769 10.2408 5.78003 10.1601 5.7649 9.8976Z" fill="#FF7379"/>
</svg>