<svg xmlns="http://www.w3.org/2000/svg" width="22" height="21" viewBox="0 0 22 21" fill="none">
  <path d="M9.74313 5.10235C9.78976 4.74844 9.54061 4.42373 9.18675 4.3771C8.83282 4.33046 8.50811 4.57956 8.46148 4.93347L9.74313 5.10235ZM6.64453 18.7224C6.5979 19.0763 6.847 19.401 7.20092 19.4477C7.55483 19.4943 7.87953 19.2451 7.92617 18.8913L6.64453 18.7224ZM13.1904 4.93347C13.1437 4.57956 12.819 4.33046 12.4651 4.3771C12.1112 4.42373 11.8621 4.74844 11.9087 5.10235L13.1904 4.93347ZM13.7256 18.8913C13.7723 19.2451 14.097 19.4943 14.4509 19.4477C14.8048 19.401 15.0539 19.0763 15.0073 18.7224L13.7256 18.8913ZM7.28535 2.64794H14.3665V1.35523H7.28535V2.64794ZM15.4904 3.7252V5.01791H16.7831V3.7252H15.4904ZM16.1367 4.37155H5.51507V5.66427H16.1367V4.37155ZM6.16143 5.01791V3.7252H4.86872V5.01791H6.16143ZM14.3665 2.64794C14.8015 2.64794 15.0645 2.64924 15.2538 2.67403C15.3412 2.68545 15.3868 2.69917 15.409 2.70809C15.4192 2.71214 15.4236 2.71489 15.4246 2.71553C15.4255 2.71603 15.4257 2.71626 15.4266 2.71711L16.3284 1.7909C16.058 1.52768 15.7312 1.43278 15.4216 1.39225C15.1288 1.35393 14.7659 1.35523 14.3665 1.35523V2.64794ZM16.7831 3.7252C16.7831 3.3377 16.7845 2.9803 16.7446 2.69115C16.7019 2.38159 16.6011 2.05647 16.3284 1.7909L15.4266 2.71711C15.4268 2.71731 15.4272 2.71771 15.4266 2.71711C15.4266 2.71709 15.4264 2.7169 15.4266 2.71711C15.4266 2.71714 15.4274 2.71799 15.4281 2.71946C15.4289 2.72096 15.4303 2.7236 15.432 2.72768C15.4394 2.74531 15.4527 2.78574 15.4641 2.86798C15.489 3.04818 15.4904 3.30018 15.4904 3.7252H16.7831ZM7.28535 1.35523C6.88589 1.35523 6.52297 1.35393 6.23022 1.39225C5.9206 1.43278 5.59377 1.52768 5.32343 1.7909L6.22522 2.71711C6.22609 2.71626 6.22639 2.71604 6.22719 2.71553C6.22819 2.71489 6.23263 2.71214 6.24278 2.70809C6.26505 2.69917 6.31066 2.68545 6.398 2.67403C6.58733 2.64924 6.85029 2.64794 7.28535 2.64794V1.35523ZM6.16143 3.7252C6.16143 3.30019 6.16288 3.04818 6.18776 2.86798C6.19912 2.78574 6.21238 2.74531 6.21983 2.72768C6.22156 2.7236 6.22288 2.72096 6.22368 2.71946C6.22447 2.71799 6.22519 2.71714 6.22522 2.71711C6.22539 2.7169 6.22523 2.71709 6.22522 2.71711C6.2246 2.71771 6.22506 2.71731 6.22522 2.71711L5.32343 1.7909C5.05067 2.05647 4.94994 2.38159 4.9072 2.69115C4.86727 2.9803 4.86872 3.3377 4.86872 3.7252H6.16143ZM4.89626 4.83123L1.65855 15.5632L2.89616 15.9366L6.13388 5.20459L4.89626 4.83123ZM19.9933 15.5632L16.7556 4.83123L15.5179 5.20459L18.7557 15.9366L19.9933 15.5632ZM2.5083 17.9212C3.82913 18.7137 6.51386 19.8841 10.8259 19.8841V18.5914C6.76089 18.5914 4.30453 17.4914 3.17338 16.8128L2.5083 17.9212ZM10.8259 19.8841C15.138 19.8841 17.8227 18.7137 19.1436 17.9212L18.4784 16.8128C17.3473 17.4914 14.8909 18.5914 10.8259 18.5914V19.8841ZM18.7557 15.9366C18.8727 16.3246 18.741 16.6552 18.4784 16.8128L19.1436 17.9212C20.0053 17.4042 20.2484 16.4088 19.9933 15.5632L18.7557 15.9366ZM1.65855 15.5632C1.40342 16.4088 1.64653 17.4042 2.5083 17.9212L3.17338 16.8128C2.91086 16.6552 2.7791 16.3246 2.89616 15.9366L1.65855 15.5632ZM8.46148 4.93347L6.64453 18.7224L7.92617 18.8913L9.74313 5.10235L8.46148 4.93347ZM11.9087 5.10235L13.7256 18.8913L15.0073 18.7224L13.1904 4.93347L11.9087 5.10235Z" fill="black"/>
</svg>